<?xml version="1.0" standalone="no"?>
<!DOCTYPE svg PUBLIC "-//W3C//DTD SVG 20010904//EN"
 "http://www.w3.org/TR/2001/REC-SVG-20010904/DTD/svg10.dtd">
<svg version="1.0" xmlns="http://www.w3.org/2000/svg"
 width="700.000000pt" height="700.000000pt" viewBox="0 0 700.000000 700.000000"
 preserveAspectRatio="xMidYMid meet">
<metadata>
Created by potrace 1.11, written by Peter Selinger 2001-2013
</metadata>
<g transform="translate(0.000000,700.000000) scale(0.100000,-0.100000)"
fill="#000000" stroke="none">
<path d="M5930 6095 l-905 -905 33 -28 c35 -30 40 -47 18 -59 -8 -4 -48 -39
-88 -77 -40 -39 -92 -88 -115 -110 l-43 -40 -30 29 -30 29 -36 -36 -36 -36 63
-21 c35 -12 87 -34 115 -50 l52 -28 1036 1036 1036 1036 0 83 0 82 -83 0 -82
0 -905 -905z"/>
<path d="M2933 5710 c-69 -41 -91 -121 -52 -189 43 -78 145 -99 215 -46 45 34
57 60 57 117 -2 107 -128 175 -220 118z"/>
<path d="M3550 5722 c-80 -35 -114 -127 -75 -202 54 -104 223 -96 264 13 26
67 1 139 -61 177 -33 20 -97 26 -128 12z"/>
<path d="M154 5665 c-3 -6 -3 -51 -2 -100 l3 -90 225 0 225 0 3 -683 2 -682
113 3 112 2 2 600 c1 330 2 636 3 680 l0 80 225 -1 c153 0 225 3 228 10 2 6 3
51 3 101 l-1 90 -569 0 c-380 0 -570 -3 -572 -10z"/>
<path d="M1569 5670 c-3 -16 -4 -1537 -1 -1547 3 -9 35 -12 113 -11 l109 1 1
351 c0 193 2 365 5 383 7 57 52 141 98 187 61 58 125 80 217 74 120 -9 176
-75 195 -233 1 -11 3 -187 3 -391 l1 -372 110 0 110 0 1 36 c5 282 -1 790 -11
838 -33 158 -120 260 -255 299 -154 44 -309 9 -420 -96 l-55 -52 0 267 c0 146
-3 267 -7 267 -27 4 -213 4 -214 -1z"/>
<path d="M4375 5293 c-152 -26 -268 -104 -313 -212 -30 -72 -26 -187 8 -255
27 -52 80 -104 140 -135 40 -21 152 -55 210 -65 263 -42 340 -84 340 -183 0
-107 -85 -164 -254 -168 -138 -3 -268 41 -356 121 l-40 36 -32 -28 c-18 -16
-51 -48 -72 -72 l-39 -42 24 -26 c56 -60 212 -142 299 -157 19 -3 46 -9 60
-12 33 -8 231 -9 256 -2 10 3 37 9 59 12 62 8 131 38 189 80 96 69 137 157
132 282 -3 95 -28 155 -85 206 -73 66 -148 94 -366 138 -179 36 -233 59 -259
112 -67 138 131 236 355 177 54 -14 152 -65 175 -91 17 -19 18 -18 48 5 46 35
116 104 116 114 0 15 -95 81 -162 112 -121 57 -289 77 -433 53z"/>
<path d="M2899 5272 c-1 -4 -2 -267 -3 -584 l-1 -576 111 0 112 0 -1 582 -2
581 -107 2 c-60 1 -109 -1 -109 -5z"/>
<path d="M3489 4672 c0 -334 -3 -625 -5 -647 -10 -82 -70 -125 -175 -125 l-46
0 0 -79 c-1 -43 3 -84 7 -92 11 -17 164 -22 217 -6 64 19 141 74 172 123 53
83 54 97 55 789 l0 640 -112 2 -112 3 -1 -608z"/>
<path d="M4320 4485 c-53 -53 -62 -67 -50 -75 32 -20 138 -50 192 -53 l57 -4
67 68 67 68 -59 17 c-69 21 -56 18 -119 28 -27 4 -59 10 -70 12 -15 4 -37 -13
-85 -61z"/>
<path d="M3888 4053 c-86 -87 -99 -105 -118 -163 -38 -115 -128 -203 -239
-237 -55 -16 -83 -44 -1793 -1752 l-1738 -1736 0 -82 0 -83 83 0 82 0 2020
2020 c1110 1110 2017 2021 2015 2023 -3 2 -36 18 -73 35 -38 17 -81 41 -97 52
-15 11 -32 20 -37 20 -4 0 -52 -44 -105 -97z"/>
</g>
</svg>
